<?xml version="1.0" encoding="UTF-8" standalone="no"?>
<svg
   width="122.80994"
   height="119.04727"
   viewBox="0 0 122.80994 119.04727"
   version="1.1"
   xml:space="preserve"
   style="clip-rule:evenodd;fill-rule:evenodd;stroke-linecap:square;stroke-miterlimit:1.5"
   id="svg625"
   sodipodi:docname="untitled2.svg"
   inkscape:version="1.2.2 (732a01da63, 2022-12-09)"
   xmlns:inkscape="http://www.inkscape.org/namespaces/inkscape"
   xmlns:sodipodi="http://sodipodi.sourceforge.net/DTD/sodipodi-0.dtd"
   xmlns="http://www.w3.org/2000/svg"
   xmlns:svg="http://www.w3.org/2000/svg"><defs
   id="defs629" /><sodipodi:namedview
   id="namedview627"
   pagecolor="#ffffff"
   bordercolor="#000000"
   borderopacity="0.25"
   inkscape:showpageshadow="2"
   inkscape:pageopacity="0.0"
   inkscape:pagecheckerboard="0"
   inkscape:deskcolor="#d1d1d1"
   showgrid="false"
   inkscape:zoom="4.9989304"
   inkscape:cx="22.704857"
   inkscape:cy="53.311404"
   inkscape:window-width="1920"
   inkscape:window-height="991"
   inkscape:window-x="-9"
   inkscape:window-y="-9"
   inkscape:window-maximized="1"
   inkscape:current-layer="svg625" />
    
<g
   id="g453"
   transform="matrix(1.3647019,0,0,1.3647019,-2238.8512,-267.09877)"
   style="stroke-width:0.732761"
   inkscape:export-filename="g453.svg"
   inkscape:export-xdpi="390.84784"
   inkscape:export-ydpi="390.84784"><path
     id="path1621"
     style="fill:#0c0c0c;stroke-width:0.633205"
     d="m 1685.557,237.72054 c -1.7565,0.8905 -3.1094,2.43093 -4.0022,4.16561 -1.6604,3.17771 -2.161,6.79105 -3.5537,10.07479 -0.672,1.57222 -1.6142,3.10885 -3.0545,4.08408 -0.7543,0.36688 -1.6231,0.23543 -2.4275,0.3845 -0.9671,0.13319 -1.8098,0.67927 -2.6019,1.21535 -2.3469,1.6632 -3.848,4.34899 -4.3185,7.16099 -0.9313,5.36421 1.642,11.13914 6.2267,14.06546 2.4249,1.567 5.4593,2.28158 8.3058,1.65819 0.9372,-0.2172 1.8819,-0.51203 2.6879,-1.05017 1.2839,-0.90265 1.9305,-2.38573 2.699,-3.69857 0.5107,-0.89058 1.1528,-1.81693 2.1703,-2.16091 1.642,-0.64265 3.4537,-0.43919 5.1484,-0.15071 2.3928,0.40965 4.7965,1.09549 7.2461,0.84395 1.681,-0.15737 3.2953,-0.89394 4.5132,-2.06382 1.7505,-1.64852 2.7912,-3.85709 3.9946,-5.8997 0.8898,-1.50024 1.8953,-3.04656 3.448,-3.93212 0.6926,-0.44182 1.5395,-0.54224 2.3414,-0.43976 1.6788,0.18458 3.3407,0.84328 5.0471,0.54933 1.0152,-0.17986 1.9101,-0.74728 2.7408,-1.3307 2.281,-1.66991 3.7362,-4.31108 4.2001,-7.07552 0.9266,-5.34164 -1.62,-11.09047 -6.1691,-14.02822 -2.403,-1.57006 -5.4091,-2.3051 -8.2461,-1.72025 -0.8885,0.19301 -1.7806,0.45956 -2.5644,0.92966 -0.7761,0.49895 -1.2512,1.34025 -2.0228,1.84035 -0.4597,0.23537 -1.0048,0.16738 -1.5027,0.13502 -1.6408,-0.211 -3.0609,-1.14688 -4.4045,-2.0482 -1.8198,-1.22575 -3.6141,-2.61811 -5.7718,-3.1873 -1.2957,-0.34889 -2.6545,-0.23589 -3.973,-0.10797 -2.1323,0.24166 -4.2294,0.84072 -6.1567,1.78664 z" /><g
     transform="matrix(0.30858076,-0.14219858,0.11933532,0.25896591,1000.0516,248.50073)"
     id="g1625"
     style="stroke-width:2.15665">
                <ellipse
   cx="1746.5699"
   cy="962.64001"
   rx="30.830999"
   ry="47.522999"
   style="fill:#0c0c0c;stroke-width:2.15665"
   id="ellipse1623" />
            </g><g
     transform="matrix(0.30858076,-0.14219858,0.11933532,0.25896591,1063.3536,219.33025)"
     id="g1629"
     style="stroke-width:2.15665">
                <ellipse
   cx="1746.5699"
   cy="962.64001"
   rx="30.830999"
   ry="47.522999"
   style="fill:#0c0c0c;stroke-width:2.15665"
   id="ellipse1627" />
            </g><g
     transform="matrix(0.30858076,-0.14219858,0.11933532,0.25896591,1013.225,223.57117)"
     id="g1633"
     style="stroke-width:2.15665">
                <ellipse
   cx="1746.5699"
   cy="962.64001"
   rx="30.830999"
   ry="47.522999"
   style="fill:#0c0c0c;stroke-width:2.15665"
   id="ellipse1631" />
            </g><path
     style="color:#000000;clip-rule:nonzero;fill:#000000;fill-rule:nonzero;stroke-width:0.732759;stroke-linecap:butt;-inkscape-stroke:none"
     d="m 1691.7299,197.91825 c -6.3553,0 -11.6914,4.64068 -11.6914,11.0803 0,4.93231 2.7403,10.59996 5.403,15.16879 2.6628,4.56883 5.3268,8.00514 5.3268,8.00514 h 1.9233 c 0,0 2.6639,-3.43631 5.3267,-8.00514 2.6627,-4.56883 5.4031,-10.23648 5.4031,-15.16879 0,-6.4401 -5.3393,-11.0803 -11.6915,-11.0803 z m 0,2.43279 c 5.2067,0 9.2587,3.52462 9.2587,8.64751 0,3.97911 -2.4974,9.52607 -5.0719,13.94377 -1.8051,3.09712 -3.2693,5.16345 -4.1868,6.41645 -0.9175,-1.253 -2.3817,-3.31933 -4.1868,-6.41645 -2.5746,-4.4177 -5.0718,-9.96466 -5.0718,-13.94377 0,-5.12337 4.0482,-8.64751 9.2586,-8.64751 z"
     id="path1635" /><path
     style="color:#000000;clip-rule:nonzero;fill:#000000;fill-rule:nonzero;stroke-width:0.732759;stroke-linecap:butt;-inkscape-stroke:none"
     d="m 1691.7299,204.10631 c -3.2056,0 -5.8305,2.62436 -5.8305,5.82982 0,3.20545 2.6249,5.83047 5.8305,5.83047 3.2054,0 5.8298,-2.62502 5.8298,-5.83047 0,-3.20546 -2.6244,-5.82982 -5.8298,-5.82982 z m 0,2.43279 c 1.8906,0 3.3969,1.50632 3.3969,3.39703 0,1.89071 -1.5063,3.39768 -3.3969,3.39768 -1.8907,0 -3.3977,-1.50697 -3.3977,-3.39768 0,-1.89071 1.507,-3.39703 3.3977,-3.39703 z"
     id="path1637" /></g></svg>
